<svg width="100" height="100" viewBox="0 0 100 100" fill="none" xmlns="http://www.w3.org/2000/svg">
<path d="M24.1935 17.7419V24.1936H11.2903V22.5807C11.2903 19.903 13.4513 17.7419 16.129 17.7419H24.1935Z" fill="#CCD1D9"/>
<path d="M59.6774 66.129H75.0646C73.5162 67.8388 72.5806 70.0967 72.5806 72.5806H30.6451C30.6451 70.0967 29.7095 67.8388 28.1777 66.129H59.6774Z" fill="#E6E9ED"/>
<path d="M98.387 66.129V69.3548C98.387 71.1292 96.9356 72.5806 95.1612 72.5806H91.9354C91.9354 70.0967 90.9998 67.8388 89.468 66.129H98.387Z" fill="#E6E9ED"/>
<path d="M1.61279 30.6451V66.129H98.387V30.6451H1.61279Z" fill="#FFEAA7"/>
<path d="M98.387 30.6452H1.61279C1.61279 27.0808 4.49995 24.1936 8.06441 24.1936H91.9354C95.4998 24.1936 98.387 27.0808 98.387 30.6452Z" fill="#FCD770"/>
<path d="M91.9355 40.3226V50C91.9355 51.7744 90.484 53.2258 88.7096 53.2258H79.0322V37.0968H88.7096C90.484 37.0968 91.9355 38.5483 91.9355 40.3226Z" fill="#69D6F4"/>
<path d="M89.468 66.129C90.9998 67.8388 91.9354 70.0967 91.9354 72.5806C91.9354 77.9194 87.5968 82.258 82.258 82.258C76.9192 82.258 72.5806 77.9194 72.5806 72.5806C72.5806 70.0967 73.5162 67.8388 75.0645 66.129C76.8223 64.1452 79.4031 62.9032 82.258 62.9032C85.1129 62.9032 87.6937 64.1452 89.468 66.129Z" fill="#838F9B"/>
<path d="M85.4838 72.5807C85.4838 74.3621 84.0395 75.8065 82.258 75.8065C80.4766 75.8065 79.0322 74.3621 79.0322 72.5807C79.0322 70.7992 80.4766 69.3549 82.258 69.3549C84.0395 69.3549 85.4838 70.7992 85.4838 72.5807Z" fill="#CCD1D9"/>
<path d="M79.0324 37.0968V53.2258H69.355C67.5806 53.2258 66.1292 51.7744 66.1292 50V40.3226C66.1292 38.5483 67.5806 37.0968 69.355 37.0968H79.0324Z" fill="#69D6F4"/>
<path d="M66.1289 22.5807V24.1936H37.0967V17.7419H61.2902C63.9679 17.7419 66.1289 19.903 66.1289 22.5807Z" fill="#CCD1D9"/>
<path d="M50 50H59.6774V66.129H50V50Z" fill="#FCD770"/>
<path d="M59.6773 40.3226V50H40.3225V40.3226C40.3225 38.5483 41.774 37.0968 43.5483 37.0968H56.4515C58.2259 37.0968 59.6773 38.5483 59.6773 40.3226Z" fill="#E6E9ED"/>
<path d="M40.3225 50H49.9999V66.129H40.3225V50Z" fill="#FCD770"/>
<path d="M30.6453 17.7419H37.0969V24.1936H30.6453V17.7419Z" fill="#FF826E"/>
<path d="M33.871 40.3226V50C33.871 51.7744 32.4195 53.2258 30.6452 53.2258H20.9677C19.1934 53.2258 17.7419 51.7744 17.7419 50V40.3226C17.7419 38.5483 19.1934 37.0968 20.9677 37.0968H30.6452C32.4195 37.0968 33.871 38.5483 33.871 40.3226Z" fill="#69D6F4"/>
<path d="M24.1936 17.7419H30.6452V24.1936H24.1936V17.7419Z" fill="#FF826E"/>
<path d="M28.1777 66.129C29.7095 67.8388 30.6451 70.0967 30.6451 72.5806C30.6451 77.9194 26.3065 82.258 20.9677 82.258C15.6289 82.258 11.2903 77.9194 11.2903 72.5806C11.2903 70.0967 12.2259 67.8388 13.7577 66.129C15.532 64.1452 18.1128 62.9032 20.9677 62.9032C23.8226 62.9032 26.4034 64.1452 28.1777 66.129Z" fill="#838F9B"/>
<path d="M24.1936 72.5807C24.1936 74.3621 22.7492 75.8065 20.9677 75.8065C19.1863 75.8065 17.7419 74.3621 17.7419 72.5807C17.7419 70.7992 19.1863 69.3549 20.9677 69.3549C22.7492 69.3549 24.1936 70.7992 24.1936 72.5807Z" fill="#CCD1D9"/>
<path d="M1.62854 66.129H13.7576C12.2258 67.8388 11.2902 70.0967 11.2902 72.5806H8.06441C4.49995 72.5806 1.61279 69.6935 1.61279 66.129H1.62854Z" fill="#E6E9ED"/>
<path d="M11.2902 30.6451V50C11.2902 53.5644 8.40305 56.4516 4.8386 56.4516H1.61279V30.6451H11.2902Z" fill="#E6E9ED"/>
<path d="M82.2581 67.7419C79.5907 67.7419 77.4194 69.9132 77.4194 72.5807C77.4194 75.2481 79.5907 77.4194 82.2581 77.4194C84.9256 77.4194 87.0969 75.2481 87.0969 72.5807C87.0969 69.9132 84.9256 67.7419 82.2581 67.7419ZM82.2581 74.1936C81.3682 74.1936 80.6452 73.469 80.6452 72.5807C80.6452 71.6923 81.3682 70.9677 82.2581 70.9677C83.1481 70.9677 83.871 71.6923 83.871 72.5807C83.871 73.469 83.1481 74.1936 82.2581 74.1936Z" fill="black"/>
<path d="M20.9679 67.7419C18.3004 67.7419 16.1292 69.9132 16.1292 72.5807C16.1292 75.2481 18.3004 77.4194 20.9679 77.4194C23.6353 77.4194 25.8066 75.2481 25.8066 72.5807C25.8066 69.9132 23.6353 67.7419 20.9679 67.7419ZM20.9679 74.1936C20.0779 74.1936 19.355 73.469 19.355 72.5807C19.355 71.6923 20.0779 70.9677 20.9679 70.9677C21.8578 70.9677 22.5808 71.6923 22.5808 72.5807C22.5808 73.469 21.8578 74.1936 20.9679 74.1936Z" fill="black"/>
<path d="M91.9355 22.5806H67.7419C67.7419 19.0225 64.8485 16.129 61.2903 16.129H16.129C12.5709 16.129 9.67742 19.0225 9.67742 22.5806H8.06452C3.61801 22.5806 0 26.1986 0 30.6452V66.129C0 70.5755 3.61801 74.1935 8.06452 74.1935H9.80658C10.5933 79.6568 15.2919 83.871 20.9677 83.871C26.6436 83.871 31.3421 79.6568 32.1289 74.1935H71.0969C71.8837 79.6568 76.5822 83.871 82.2581 83.871C87.9339 83.871 92.6325 79.6568 93.4192 74.1935H95.1613C97.8287 74.1935 100 72.0223 100 69.3548V30.6452C100 26.1986 96.382 22.5806 91.9355 22.5806ZM90.1438 64.5161C88.1064 62.5244 85.324 61.2903 82.2581 61.2903C79.1921 61.2903 76.4081 62.5244 74.3723 64.5161H61.2903V40.3226C61.2903 37.6551 59.119 35.4839 56.4516 35.4839H43.5484C40.881 35.4839 38.7097 37.6551 38.7097 40.3226V64.5161H28.8535C26.8161 62.5244 24.0337 61.2903 20.9677 61.2903C17.9018 61.2903 15.1178 62.5244 13.082 64.5161H3.22581V58.0645H4.83871C9.28522 58.0645 12.9032 54.4465 12.9032 50V32.2581H96.7742V64.5161H90.1438ZM31.1531 67.7419H72.0727C71.5938 68.7453 71.2615 69.8289 71.0969 70.9677H32.1289C31.9643 69.8289 31.632 68.7453 31.1531 67.7419ZM51.6129 64.5161V51.6129H58.0645V64.5161H51.6129ZM58.0645 48.3871H41.9355V40.3226C41.9355 39.4342 42.6585 38.7097 43.5484 38.7097H56.4516C57.3415 38.7097 58.0645 39.4342 58.0645 40.3226V48.3871ZM41.9355 51.6129H48.3871V64.5161H41.9355V51.6129ZM9.67742 32.2581V50C9.67742 52.6674 7.50614 54.8387 4.83871 54.8387H3.22581V32.2581H9.67742ZM64.5161 22.5806H38.7097V19.3548H61.2903C63.0694 19.3548 64.5161 20.8016 64.5161 22.5806ZM25.8065 22.5806V19.3548H29.0323V22.5806H25.8065ZM32.2581 19.3548H35.4839V22.5806H32.2581V19.3548ZM16.129 19.3548H22.5806V22.5806H12.9032C12.9032 20.8016 14.35 19.3548 16.129 19.3548ZM8.06452 25.8064H91.9355C94.0351 25.8064 95.8094 27.1595 96.4773 29.0323H3.52271C4.19056 27.1595 5.96491 25.8064 8.06452 25.8064ZM3.52271 67.7419H10.7824C10.3035 68.7453 9.97118 69.8289 9.80658 70.9677H8.06452C5.96491 70.9677 4.19056 69.6147 3.52271 67.7419ZM20.9677 80.6451C16.5212 80.6451 12.9032 77.0271 12.9032 72.5806C12.9032 68.1341 16.5212 64.5161 20.9677 64.5161C25.4143 64.5161 29.0323 68.1341 29.0323 72.5806C29.0323 77.0271 25.4143 80.6451 20.9677 80.6451ZM82.2581 80.6451C77.8116 80.6451 74.1936 77.0271 74.1936 72.5806C74.1936 68.1341 77.8116 64.5161 82.2581 64.5161C86.7046 64.5161 90.3226 68.1341 90.3226 72.5806C90.3226 77.0271 86.7046 80.6451 82.2581 80.6451ZM95.1613 70.9677H93.4192C93.2546 69.8289 92.9223 68.7453 92.4435 67.7419H96.7742V69.3548C96.7742 70.2432 96.0512 70.9677 95.1613 70.9677Z" fill="black"/>
<path d="M88.7097 35.4839H69.3548C66.6874 35.4839 64.5161 37.6552 64.5161 40.3226V50C64.5161 52.6674 66.6874 54.8387 69.3548 54.8387H88.7097C91.3771 54.8387 93.5484 52.6674 93.5484 50V40.3226C93.5484 37.6552 91.3771 35.4839 88.7097 35.4839ZM67.7419 50V40.3226C67.7419 39.4342 68.4649 38.7097 69.3548 38.7097H77.4193V51.6129H69.3548C68.4649 51.6129 67.7419 50.8884 67.7419 50ZM90.3226 50C90.3226 50.8884 89.5996 51.6129 88.7097 51.6129H80.6451V38.7097H88.7097C89.5996 38.7097 90.3226 39.4342 90.3226 40.3226V50Z" fill="black"/>
<path d="M30.6453 35.4839H20.9679C18.3004 35.4839 16.1292 37.6552 16.1292 40.3226V50C16.1292 52.6674 18.3004 54.8387 20.9679 54.8387H30.6453C33.3127 54.8387 35.484 52.6674 35.484 50V40.3226C35.484 37.6552 33.3127 35.4839 30.6453 35.4839ZM32.2582 50C32.2582 50.8884 31.5352 51.6129 30.6453 51.6129H20.9679C20.0779 51.6129 19.355 50.8884 19.355 50V40.3226C19.355 39.4342 20.0779 38.7097 20.9679 38.7097H30.6453C31.5352 38.7097 32.2582 39.4342 32.2582 40.3226V50Z" fill="black"/>
</svg>
