<svg width="100" height="100" viewBox="0 0 100 100" fill="none" xmlns="http://www.w3.org/2000/svg">
<g clip-path="url(#clip0)">
<path d="M88.7097 59.6774H53.2258C51.4436 59.6774 50 58.2338 50 56.4516V50C50 48.2178 51.4436 46.7742 53.2258 46.7742H88.7097C90.4919 46.7742 91.9355 48.2178 91.9355 50V56.4516C91.9355 58.2338 90.4919 59.6774 88.7097 59.6774Z" fill="#F0BC5E"/>
<path d="M88.7097 40.3225H27.4194C25.6372 40.3225 24.1936 38.879 24.1936 37.0967V30.6451C24.1936 28.8629 25.6372 27.4193 27.4194 27.4193H88.7097C90.492 27.4193 91.9355 28.8629 91.9355 30.6451V37.0967C91.9355 38.879 90.492 40.3225 88.7097 40.3225Z" fill="#F0BC5E"/>
<path d="M88.7096 41.9354C91.377 41.9354 93.5483 39.7642 93.5483 37.0967V30.6451C93.5483 27.9777 91.377 25.8064 88.7096 25.8064H27.4193C24.7518 25.8064 22.5806 27.9777 22.5806 30.6451V37.0967C22.5806 39.7642 24.7518 41.9354 27.4193 41.9354H88.7096ZM48.387 38.7096V29.0322H67.7419V38.7096H48.387ZM90.3225 30.6451V37.0967C90.3225 37.9867 89.5995 38.7096 88.7096 38.7096H70.9677V29.0322H88.7096C89.5995 29.0322 90.3225 29.7552 90.3225 30.6451ZM25.8064 37.0967V30.6451C25.8064 29.7552 26.5293 29.0322 27.4193 29.0322H45.1612V38.7096H27.4193C26.5293 38.7096 25.8064 37.9867 25.8064 37.0967Z" fill="black"/>
<path d="M93.5484 19.4777V17.7419C93.5484 15.0745 91.3771 12.9032 88.7097 12.9032H72.5806C69.9132 12.9032 67.7419 15.0745 67.7419 17.7419V19.3548H51.6129V17.7419C51.6129 15.0745 49.4416 12.9032 46.7742 12.9032H20.9677C18.3003 12.9032 16.129 15.0745 16.129 17.7419V19.3745C10.6729 19.5722 6.0728 23.7029 5.3451 29.1535L0.0677294 68.7389C0.0228389 69.0776 0 69.4162 0 69.7565C0 73.9825 3.43687 77.4193 7.66287 77.4193H17.7419V74.1935H7.66287C5.63886 74.1935 3.94642 72.8224 3.41482 70.9677H20.218V67.7419H15.9503C18.0483 65.6903 19.3548 62.8355 19.3548 59.6774V37.0967C19.3548 31.5319 15.3029 26.9051 9.99716 25.9836C11.4722 23.9242 13.8648 22.5806 16.537 22.5806H92.3371C94.7841 22.5806 96.7742 24.5708 96.7742 27.0177V67.7419H89.461V70.9677H96.7742V72.5806C96.7742 73.4706 96.0512 74.1935 95.1613 74.1935H91.9355V77.4193H95.1613C97.8287 77.4193 100 75.2481 100 72.5806V27.0177C100 23.2067 97.1971 20.0628 93.5484 19.4777ZM14.5161 58.0645C13.6262 58.0645 12.9032 57.3415 12.9032 56.4516V48.3871H16.129V58.0645H14.5161ZM6.46579 45.1613L6.89658 41.9355H16.129V45.1613H6.46579ZM3.45498 67.7419L6.03579 48.3871H9.67742V56.4516C9.67742 59.119 11.8487 61.2903 14.5161 61.2903H15.966C15.2163 64.9658 11.9582 67.7419 8.06452 67.7419H3.45498ZM16.129 37.0967V38.7097H7.32579L8.54335 29.5788C8.56619 29.411 8.62289 29.2567 8.65518 29.0921C12.8229 29.4 16.129 32.8519 16.129 37.0967ZM70.9677 17.7419C70.9677 16.852 71.6907 16.129 72.5806 16.129H88.7097C89.5996 16.129 90.3226 16.852 90.3226 17.7419V19.3548H70.9677V17.7419ZM48.3871 17.7419V19.3548H41.9355V16.129H46.7742C47.6641 16.129 48.3871 16.852 48.3871 17.7419ZM35.4839 16.129H38.7097V19.3548H35.4839V16.129ZM32.2581 19.3548H29.0323V16.129H32.2581V19.3548ZM20.9677 16.129H25.8065V19.3548H19.3548V17.7419C19.3548 16.852 20.0778 16.129 20.9677 16.129Z" fill="black"/>
<path d="M37.0967 74.1936H72.5806V77.4194H37.0967V74.1936Z" fill="black"/>
<path d="M45.1612 45.1613H22.5806V66.6874H25.8064V54.8387H32.258V68.5932H34.6254V70.9677H75.0598V67.7419H45.1612V45.1613ZM25.8064 48.3871H41.9354V51.6129H25.8064V48.3871ZM41.9354 54.8387V67.7419H35.4838V54.8387H41.9354Z" fill="black"/>
<path d="M93.5485 56.4516V50C93.5485 47.3325 91.3772 45.1613 88.7098 45.1613H53.2259C50.5585 45.1613 48.3872 47.3325 48.3872 50V56.4516C48.3872 59.119 50.5585 61.2903 53.2259 61.2903H88.7098C91.3772 61.2903 93.5485 59.119 93.5485 56.4516ZM51.613 56.4516V50C51.613 49.11 52.336 48.3871 53.2259 48.3871H69.3549V58.0645H53.2259C52.336 58.0645 51.613 57.3415 51.613 56.4516ZM90.3227 56.4516C90.3227 57.3415 89.5997 58.0645 88.7098 58.0645H72.5808V48.3871H88.7098C89.5997 48.3871 90.3227 49.11 90.3227 50V56.4516Z" fill="black"/>
<path d="M27.2902 65.6129C32.629 65.6129 36.9676 69.9515 36.9676 75.2903C36.9676 80.6291 32.629 84.9678 27.2902 84.9678C21.9514 84.9678 17.6128 80.6291 17.6128 75.2903C17.6128 69.9515 21.9514 65.6129 27.2902 65.6129Z" fill="#838F9B"/>
<path d="M30.5161 75.2903C30.5161 77.0717 29.0717 78.5161 27.2903 78.5161C25.5088 78.5161 24.0645 77.0717 24.0645 75.2903C24.0645 73.5088 25.5088 72.0645 27.2903 72.0645C29.0717 72.0645 30.5161 73.5088 30.5161 75.2903Z" fill="#CCD1D9"/>
<path d="M27.2904 70.4515C24.6229 70.4515 22.4517 72.6228 22.4517 75.2902C22.4517 77.9577 24.6229 80.129 27.2904 80.129C29.9578 80.129 32.1291 77.9577 32.1291 75.2902C32.1291 72.6228 29.9578 70.4515 27.2904 70.4515ZM27.2904 76.9032C26.4004 76.9032 25.6775 76.1786 25.6775 75.2902C25.6775 74.4019 26.4004 73.6773 27.2904 73.6773C28.1803 73.6773 28.9033 74.4019 28.9033 75.2902C28.9033 76.1786 28.1803 76.9032 27.2904 76.9032Z" fill="black"/>
<path d="M27.2903 64C21.0663 64 16 69.0647 16 75.2903C16 81.5159 21.0663 86.5807 27.2903 86.5807C33.5143 86.5807 38.5806 81.5159 38.5806 75.2903C38.5806 69.0647 33.5143 64 27.2903 64ZM27.2903 83.3548C22.8438 83.3548 19.2258 79.7368 19.2258 75.2903C19.2258 70.8438 22.8438 67.2258 27.2903 67.2258C31.7368 67.2258 35.3548 70.8438 35.3548 75.2903C35.3548 79.7368 31.7368 83.3548 27.2903 83.3548Z" fill="black"/>
<path d="M82.2902 65.6129C87.629 65.6129 91.9676 69.9515 91.9676 75.2903C91.9676 80.6291 87.629 84.9678 82.2902 84.9678C76.9514 84.9678 72.6128 80.6291 72.6128 75.2903C72.6128 69.9515 76.9514 65.6129 82.2902 65.6129Z" fill="#838F9B"/>
<path d="M85.5161 75.2903C85.5161 77.0717 84.0717 78.5161 82.2903 78.5161C80.5088 78.5161 79.0645 77.0717 79.0645 75.2903C79.0645 73.5088 80.5088 72.0645 82.2903 72.0645C84.0717 72.0645 85.5161 73.5088 85.5161 75.2903Z" fill="#CCD1D9"/>
<path d="M82.2904 70.4515C79.6229 70.4515 77.4517 72.6228 77.4517 75.2902C77.4517 77.9577 79.6229 80.129 82.2904 80.129C84.9578 80.129 87.1291 77.9577 87.1291 75.2902C87.1291 72.6228 84.9578 70.4515 82.2904 70.4515ZM82.2904 76.9032C81.4004 76.9032 80.6775 76.1786 80.6775 75.2902C80.6775 74.4019 81.4004 73.6773 82.2904 73.6773C83.1803 73.6773 83.9033 74.4019 83.9033 75.2902C83.9033 76.1786 83.1803 76.9032 82.2904 76.9032Z" fill="black"/>
<path d="M82.2903 64C76.0663 64 71 69.0647 71 75.2903C71 81.5159 76.0663 86.5807 82.2903 86.5807C88.5143 86.5807 93.5806 81.5159 93.5806 75.2903C93.5806 69.0647 88.5143 64 82.2903 64ZM82.2903 83.3548C77.8438 83.3548 74.2258 79.7368 74.2258 75.2903C74.2258 70.8438 77.8438 67.2258 82.2903 67.2258C86.7368 67.2258 90.3548 70.8438 90.3548 75.2903C90.3548 79.7368 86.7368 83.3548 82.2903 83.3548Z" fill="black"/>
</g>
<defs>
<clipPath id="clip0">
<rect width="100" height="100" fill="white"/>
</clipPath>
</defs>
</svg>
