<svg width="100" height="100" viewBox="0 0 100 100" fill="none" xmlns="http://www.w3.org/2000/svg">
<path d="M24.1936 45.1613H88.7097C90.492 45.1613 91.9355 43.7178 91.9355 41.9355V23.1438L24.1936 22.5807V45.1613Z" fill="#F0BC5E"/>
<path d="M88.7097 20.9677V19.3548C88.7097 16.6874 86.5384 14.5161 83.871 14.5161H55.6452L50.8065 20.9677H24.7629C14.45 20.9677 5.53412 28.6613 4.02281 38.8632L0.0984438 65.3438C0.0322895 65.7872 0 66.2338 0 66.6819C0 71.7127 4.09369 75.8064 9.12456 75.8064H20.9677V72.5806H9.12456C5.87276 72.5806 3.22581 69.9337 3.22581 66.6819C3.22581 66.4984 3.25022 66.3125 3.26597 66.129H15.184L22.5806 58.7323V67.7419H25.8065V56.4516H39.3775L42.6033 53.2258H45.1613V72.5806H40.3226V75.8064H69.3548V72.5806H61.2903V53.2258H70.9677V56.4516H67.7419V59.6774H70.9677V66.9819H74.1936V53.2258H83.871V56.4516H80.6452V59.6774H83.871V66.9953H86.2352V69.3548H95.7772L94.61 71.6883C94.3352 72.2388 93.7823 72.5806 93.168 72.5806H88.7097V75.8064H93.168C95.0117 75.8064 96.6694 74.7826 97.4948 73.1319L100 68.1223V32.258C100 26.0325 94.9353 20.9677 88.7097 20.9677ZM90.3226 24.3566V41.9355C90.3226 42.8238 89.598 43.5484 88.7097 43.5484H70.9677V24.1935H88.7097C89.261 24.1935 89.8012 24.2502 90.3226 24.3566ZM12.9032 41.9355V53.2258H5.15452L6.82727 41.9355H12.9032ZM16.129 41.9355H22.5806V53.2258H16.129V41.9355ZM25.8065 24.1935H45.1613V43.5484H25.8065V24.1935ZM48.3871 24.1935H67.7419V43.5484H48.3871V24.1935ZM57.2581 17.7419H83.871C84.7593 17.7419 85.4839 18.4665 85.4839 19.3548V20.9677H54.8387L57.2581 17.7419ZM22.5806 24.3471V38.7097H7.33524C8.74654 31.1145 15.0178 25.3 22.5806 24.3471ZM13.8483 62.9032H3.72118L4.67726 56.4516H20.2999L13.8483 62.9032ZM41.2676 50L38.0418 53.2258H25.8065V46.7742H88.7097C91.3771 46.7742 93.5484 44.6029 93.5484 41.9355V25.8482C95.4952 27.3225 96.7742 29.6355 96.7742 32.258V50H41.2676ZM58.0645 56.4516H54.8387V59.6774H58.0645V72.5806H48.3871V53.2258H58.0645V56.4516ZM96.7742 53.2258V66.129H87.0968V53.2258H96.7742Z" fill="black"/>
<path d="M29.2902 64.6129C34.629 64.6129 38.9676 68.9515 38.9676 74.2903C38.9676 79.6291 34.629 83.9678 29.2902 83.9678C23.9514 83.9678 19.6128 79.6291 19.6128 74.2903C19.6128 68.9515 23.9514 64.6129 29.2902 64.6129Z" fill="#838F9B"/>
<path d="M32.5161 74.2903C32.5161 76.0717 31.0717 77.5161 29.2903 77.5161C27.5088 77.5161 26.0645 76.0717 26.0645 74.2903C26.0645 72.5088 27.5088 71.0645 29.2903 71.0645C31.0717 71.0645 32.5161 72.5088 32.5161 74.2903Z" fill="#CCD1D9"/>
<path d="M29.2904 69.4515C26.6229 69.4515 24.4517 71.6228 24.4517 74.2902C24.4517 76.9577 26.6229 79.129 29.2904 79.129C31.9578 79.129 34.1291 76.9577 34.1291 74.2902C34.1291 71.6228 31.9578 69.4515 29.2904 69.4515ZM29.2904 75.9032C28.4004 75.9032 27.6775 75.1786 27.6775 74.2902C27.6775 73.4019 28.4004 72.6773 29.2904 72.6773C30.1803 72.6773 30.9033 73.4019 30.9033 74.2902C30.9033 75.1786 30.1803 75.9032 29.2904 75.9032Z" fill="black"/>
<path d="M29.2903 63C23.0663 63 18 68.0647 18 74.2903C18 80.5159 23.0663 85.5807 29.2903 85.5807C35.5143 85.5807 40.5806 80.5159 40.5806 74.2903C40.5806 68.0647 35.5143 63 29.2903 63ZM29.2903 82.3548C24.8438 82.3548 21.2258 78.7368 21.2258 74.2903C21.2258 69.8438 24.8438 66.2258 29.2903 66.2258C33.7368 66.2258 37.3548 69.8438 37.3548 74.2903C37.3548 78.7368 33.7368 82.3548 29.2903 82.3548Z" fill="black"/>
<path d="M78.2902 64.6129C83.629 64.6129 87.9676 68.9515 87.9676 74.2903C87.9676 79.6291 83.629 83.9678 78.2902 83.9678C72.9514 83.9678 68.6128 79.6291 68.6128 74.2903C68.6128 68.9515 72.9514 64.6129 78.2902 64.6129Z" fill="#838F9B"/>
<path d="M81.5161 74.2903C81.5161 76.0717 80.0717 77.5161 78.2903 77.5161C76.5088 77.5161 75.0645 76.0717 75.0645 74.2903C75.0645 72.5088 76.5088 71.0645 78.2903 71.0645C80.0717 71.0645 81.5161 72.5088 81.5161 74.2903Z" fill="#CCD1D9"/>
<path d="M78.2904 69.4515C75.6229 69.4515 73.4517 71.6228 73.4517 74.2902C73.4517 76.9577 75.6229 79.129 78.2904 79.129C80.9578 79.129 83.1291 76.9577 83.1291 74.2902C83.1291 71.6228 80.9578 69.4515 78.2904 69.4515ZM78.2904 75.9032C77.4004 75.9032 76.6775 75.1786 76.6775 74.2902C76.6775 73.4019 77.4004 72.6773 78.2904 72.6773C79.1803 72.6773 79.9033 73.4019 79.9033 74.2902C79.9033 75.1786 79.1803 75.9032 78.2904 75.9032Z" fill="black"/>
<path d="M78.2903 63C72.0663 63 67 68.0647 67 74.2903C67 80.5159 72.0663 85.5807 78.2903 85.5807C84.5143 85.5807 89.5806 80.5159 89.5806 74.2903C89.5806 68.0647 84.5143 63 78.2903 63ZM78.2903 82.3548C73.8438 82.3548 70.2258 78.7368 70.2258 74.2903C70.2258 69.8438 73.8438 66.2258 78.2903 66.2258C82.7368 66.2258 86.3548 69.8438 86.3548 74.2903C86.3548 78.7368 82.7368 82.3548 78.2903 82.3548Z" fill="black"/>
</svg>
