<svg width="100" height="100" viewBox="0 0 100 100" fill="none" xmlns="http://www.w3.org/2000/svg">
<path d="M97.8223 27.4194H26.8388C24.258 27.4194 21.919 28.952 20.9031 31.3225L18.4357 37.0968L17.7418 38.7097V59.6775C17 60.6611 16.3707 61.7416 15.8706 62.9033H1.61279V56.4516C6.9516 56.4516 11.2902 53.5645 11.2902 50C11.2902 46.6774 7.51627 43.9359 2.66102 43.5807H2.64527C3.56434 41.7418 5.06463 40.21 6.96735 39.2578L11.2902 37.0968L14.5003 29.0803C16.4518 24.1778 21.2094 20.9678 26.4836 20.9678H88.7096C92.919 20.9678 96.5158 23.6612 97.8223 27.4194Z" fill="#FFEAA7"/>
<path d="M46.7742 50.0001V62.9033H45.4196C44.6132 61.0486 43.4681 59.3711 42.0481 57.952C39.1287 55.0325 35.0964 53.2259 30.6452 53.2259C26.1939 53.2259 22.1617 55.0325 19.2422 57.952C18.7098 58.4836 18.2097 59.0648 17.7419 59.6775V43.5485H46.7742V50.0001Z" fill="#FCD770"/>
<path d="M98.3871 30.6452V62.9033H89.4681C87.6937 60.9195 85.1129 59.6775 82.258 59.6775C79.4032 59.6775 76.8224 60.9195 75.048 62.9033H46.7742V27.4194H97.8389C98.1933 28.4354 98.3871 29.5159 98.3871 30.6452Z" fill="#FCD770"/>
<path d="M46.7742 27.4194V43.5485H25.8065C28.4841 43.5485 30.6452 41.3874 30.6452 38.7098V37.0969H18.4358L20.9032 31.3225C21.9191 28.952 24.2582 27.4194 26.839 27.4194H46.7742Z" fill="#69D6F4"/>
<path d="M2.66102 43.5807C7.51627 43.9359 11.2902 46.6773 11.2902 50C11.2902 53.5645 6.9516 56.4516 1.61279 56.4516V47.9193C1.61279 46.3867 1.98373 44.903 2.64527 43.5807H2.66102Z" fill="#FF826E"/>
<path d="M30.6452 37.0968V38.7097C30.6452 41.3874 28.4841 43.5484 25.8065 43.5484H17.7419V38.7097L18.4358 37.0968H30.6452Z" fill="#E6E9ED"/>
<path d="M98.387 62.9032V66.129C98.387 67.9034 96.9356 69.3548 95.1612 69.3548H91.9354C91.9354 66.8709 90.9998 64.613 89.468 62.9032H98.387Z" fill="#E6E9ED"/>
<path d="M91.9354 37.0968V46.7742C91.9354 48.5485 90.4839 50 88.7096 50H72.5806V33.871H88.7096C90.4839 33.871 91.9354 35.3224 91.9354 37.0968Z" fill="#69D6F4"/>
<path d="M89.468 62.9033C90.9998 64.6131 91.9354 66.871 91.9354 69.3549C91.9354 74.6937 87.5968 79.0323 82.258 79.0323C76.9192 79.0323 72.5806 74.6937 72.5806 69.3549C72.5806 66.871 73.5162 64.6131 75.048 62.9033C76.8223 60.9195 79.4031 59.6775 82.258 59.6775C85.1129 59.6775 87.6937 60.9195 89.468 62.9033Z" fill="#838F9B"/>
<path d="M85.4838 69.3548C85.4838 71.1363 84.0395 72.5806 82.258 72.5806C80.4766 72.5806 79.0322 71.1363 79.0322 69.3548C79.0322 67.5734 80.4766 66.129 82.258 66.129C84.0395 66.129 85.4838 67.5734 85.4838 69.3548Z" fill="#CCD1D9"/>
<path d="M46.7743 62.9032H75.0481C73.5163 64.613 72.5807 66.8709 72.5807 69.3548H46.7743C46.7743 67.0646 46.2907 64.8713 45.4197 62.9032H46.7743Z" fill="#E6E9ED"/>
<path d="M72.5807 33.871V50H56.4516C54.6773 50 53.2258 48.5485 53.2258 46.7742V37.0968C53.2258 35.3224 54.6773 33.871 56.4516 33.871H72.5807Z" fill="#69D6F4"/>
<path d="M30.6452 59.6775C35.984 59.6775 40.3226 64.0161 40.3226 69.3549C40.3226 74.6937 35.984 79.0323 30.6452 79.0323C25.3064 79.0323 20.9678 74.6937 20.9678 69.3549C20.9678 64.0161 25.3064 59.6775 30.6452 59.6775Z" fill="#838F9B"/>
<path d="M33.871 69.3548C33.871 71.1363 32.4267 72.5806 30.6452 72.5806C28.8638 72.5806 27.4194 71.1363 27.4194 69.3548C27.4194 67.5734 28.8638 66.129 30.6452 66.129C32.4267 66.129 33.871 67.5734 33.871 69.3548Z" fill="#CCD1D9"/>
<path d="M15.8549 62.9032H15.8706C14.9996 64.8713 14.516 67.0646 14.516 69.3548H8.06441C4.49995 69.3548 1.61279 66.4677 1.61279 62.9032H15.8549Z" fill="#E6E9ED"/>
<path d="M82.2581 64.5161C79.5907 64.5161 77.4194 66.6874 77.4194 69.3548C77.4194 72.0223 79.5907 74.1935 82.2581 74.1935C84.9256 74.1935 87.0969 72.0223 87.0969 69.3548C87.0969 66.6874 84.9256 64.5161 82.2581 64.5161ZM82.2581 70.9677C81.3682 70.9677 80.6452 70.2432 80.6452 69.3548C80.6452 68.4665 81.3682 67.7419 82.2581 67.7419C83.1481 67.7419 83.871 68.4665 83.871 69.3548C83.871 70.2432 83.1481 70.9677 82.2581 70.9677Z" fill="black"/>
<path d="M30.6451 64.5161C27.9777 64.5161 25.8064 66.6874 25.8064 69.3548C25.8064 72.0223 27.9777 74.1935 30.6451 74.1935C33.3125 74.1935 35.4838 72.0223 35.4838 69.3548C35.4838 66.6874 33.3125 64.5161 30.6451 64.5161ZM30.6451 70.9677C29.7552 70.9677 29.0322 70.2432 29.0322 69.3548C29.0322 68.4665 29.7552 67.7419 30.6451 67.7419C31.535 67.7419 32.258 68.4665 32.258 69.3548C32.258 70.2432 31.535 70.9677 30.6451 70.9677Z" fill="black"/>
<path d="M30.6451 58.0646C24.421 58.0646 19.3547 63.1293 19.3547 69.3549C19.3547 75.5805 24.421 80.6452 30.6451 80.6452C36.8691 80.6452 41.9354 75.5805 41.9354 69.3549C41.9354 63.1293 36.8691 58.0646 30.6451 58.0646ZM30.6451 77.4194C26.1985 77.4194 22.5805 73.8014 22.5805 69.3549C22.5805 64.9084 26.1985 61.2904 30.6451 61.2904C35.0916 61.2904 38.7096 64.9084 38.7096 69.3549C38.7096 73.8014 35.0916 77.4194 30.6451 77.4194Z" fill="black"/>
<path d="M88.7096 32.2581H56.4515C53.7841 32.2581 51.6128 34.4293 51.6128 37.0968V46.7742C51.6128 49.4416 53.7841 51.6129 56.4515 51.6129H88.7096C91.377 51.6129 93.5483 49.4416 93.5483 46.7742V37.0968C93.5483 34.4293 91.377 32.2581 88.7096 32.2581ZM54.8386 46.7742V37.0968C54.8386 36.2084 55.5616 35.4839 56.4515 35.4839H70.9676V48.3871H56.4515C55.5616 48.3871 54.8386 47.6625 54.8386 46.7742ZM90.3225 46.7742C90.3225 47.6625 89.5995 48.3871 88.7096 48.3871H74.1934V35.4839H88.7096C89.5995 35.4839 90.3225 36.2084 90.3225 37.0968V46.7742Z" fill="black"/>
<path d="M88.7097 19.3549H26.4774C20.5078 19.3549 15.2178 22.9374 13.0001 28.4794L10.0208 35.9273L6.24055 37.8174C2.39022 39.7438 0 43.613 0 47.9162V62.9032C0 67.3498 3.61801 70.9678 8.06452 70.9678H16.129V69.3549C16.129 61.3518 22.6405 54.8387 30.6452 54.8387C38.6498 54.8387 45.1613 61.3518 45.1613 69.3549V70.9678H71.0969C71.8837 76.431 76.5822 80.6452 82.2581 80.6452C87.9339 80.6452 92.6325 76.431 93.4192 70.9678H95.1613C97.8287 70.9678 100 68.7965 100 66.1291V30.6452C100 24.4196 94.9337 19.3549 88.7097 19.3549ZM90.1438 61.2903C88.1064 59.2986 85.324 58.0645 82.2581 58.0645C79.1921 58.0645 76.4081 59.2986 74.3723 61.2903H48.3871V29.0323H96.6112C96.7175 29.5536 96.7742 30.0939 96.7742 30.6452V61.2903H90.1438ZM19.3548 39.0405L19.4966 38.7097H29.0323C29.0323 40.4888 27.5855 41.9355 25.8065 41.9355H19.3548V39.0405ZM20.8787 35.4839L22.3869 31.9643C23.1516 30.1837 24.8984 29.0323 26.8358 29.0323H45.1613V41.9355H31.361C31.9163 40.9826 32.2581 39.8902 32.2581 38.7097V35.4839H20.8787ZM3.65975 45.3417C7.10843 45.9048 9.67742 47.824 9.67742 50C9.67742 52.2918 6.85484 54.2725 3.22581 54.7356V47.9162C3.22581 47.0207 3.38568 46.1583 3.65975 45.3417ZM8.06452 67.742C5.96491 67.742 4.19056 66.3889 3.52271 64.5161H13.5758C13.2805 65.5565 13.0757 66.6339 12.9757 67.742H8.06452ZM14.8501 61.2903H3.22581V57.9771C8.76307 57.4321 12.9032 54.1291 12.9032 50C12.9032 46.5064 9.8239 43.5208 5.41756 42.408C6.05941 41.7276 6.81152 41.1385 7.68413 40.703L12.5599 38.2647L15.9951 29.6773C17.7191 25.3662 21.834 22.5807 26.4774 22.5807H88.7097C91.3338 22.5807 93.6468 23.8596 95.1196 25.8065H26.8358C23.6068 25.8065 20.6952 27.7242 19.4226 30.6932L16.129 38.3789V59.1955C15.6597 59.8633 15.2257 60.5579 14.8501 61.2903ZM30.6452 51.6129C26.3546 51.6129 22.4255 53.1581 19.3548 55.7019V45.1613H45.1613V48.3871H41.9355V51.6129H45.1613V59.1955C41.9481 54.619 36.6471 51.6129 30.6452 51.6129ZM47.7145 64.5161H72.0742C71.5954 65.5195 71.2631 66.6032 71.0985 67.742H48.3146C48.2146 66.6339 48.0099 65.5565 47.7145 64.5161ZM82.2581 77.4194C77.8116 77.4194 74.1936 73.8014 74.1936 69.3549C74.1936 64.9083 77.8116 61.2903 82.2581 61.2903C86.7046 61.2903 90.3226 64.9083 90.3226 69.3549C90.3226 73.8014 86.7046 77.4194 82.2581 77.4194ZM95.1613 67.742H93.4192C93.2546 66.6032 92.9223 65.5195 92.4435 64.5161H96.7742V66.1291C96.7742 67.0174 96.0512 67.742 95.1613 67.742Z" fill="black"/>
</svg>
