<svg width="100" height="100" viewBox="0 0 100 100" fill="none" xmlns="http://www.w3.org/2000/svg">
<path d="M37.0967 19.3549H98.387V54.8387H37.0967V19.3549Z" fill="#B4DD7F"/>
<path d="M30.6451 35.4839V61.2903H1.61279V51.6129H17.7418C21.3063 51.6129 24.1934 48.7257 24.1934 45.1613V38.7097H3.35485C5.56472 34.8546 9.74189 32.2581 14.516 32.2581H27.4192C29.1936 32.2581 30.6451 33.7095 30.6451 35.4839Z" fill="#FCD770"/>
<path d="M24.1934 38.7096V45.1612C24.1934 48.7257 21.3063 51.6128 17.7418 51.6128H1.61279V45.1612C1.61279 42.8064 2.24205 40.5966 3.35485 38.7096H24.1934Z" fill="#69D6F4"/>
<path d="M91.9354 54.8386V61.2902H43.5483V54.8386H91.9354Z" fill="#AAB2BD"/>
<path d="M1.61279 61.2904H22.5805C17.2417 61.2904 12.9031 65.629 12.9031 70.9678H8.0644C4.49995 70.9678 1.61279 68.0807 1.61279 64.5162V61.2904Z" fill="#E6E9ED"/>
<path d="M30.6451 61.2904H62.9031C57.5643 61.2904 53.2257 65.629 53.2257 70.9678H32.258C32.258 65.629 27.9194 61.2904 22.5806 61.2904H30.6451Z" fill="#E6E9ED"/>
<path d="M91.9355 61.2904H95.1613C96.9356 61.2904 98.3871 62.7419 98.3871 64.5162V67.742C98.3871 69.5164 96.9356 70.9678 95.1613 70.9678H91.9355C91.9355 65.629 87.5969 61.2904 82.2581 61.2904H91.9355Z" fill="#E6E9ED"/>
<path d="M22.5807 61.2904C27.9195 61.2904 32.2582 65.629 32.2582 70.9678C32.2582 76.3066 27.9195 80.6452 22.5807 80.6452C17.2419 80.6452 12.9033 76.3066 12.9033 70.9678C12.9033 65.629 17.2419 61.2904 22.5807 61.2904Z" fill="#838F9B"/>
<path d="M72.5807 70.9678C72.5807 76.3066 68.242 80.6452 62.9032 80.6452C57.5644 80.6452 53.2258 76.3066 53.2258 70.9678C53.2258 65.629 57.5644 61.2904 62.9032 61.2904C68.242 61.2904 72.5807 65.629 72.5807 70.9678Z" fill="#838F9B"/>
<path d="M82.258 61.2904C87.5968 61.2904 91.9354 65.629 91.9354 70.9678C91.9354 76.3066 87.5968 80.6452 82.258 80.6452C76.9192 80.6452 72.5806 76.3066 72.5806 70.9678C72.5806 65.629 76.9192 61.2904 82.258 61.2904Z" fill="#838F9B"/>
<path d="M25.8063 70.9678C25.8063 72.7492 24.362 74.1936 22.5805 74.1936C20.7991 74.1936 19.3547 72.7492 19.3547 70.9678C19.3547 69.1863 20.7991 67.7419 22.5805 67.7419C24.362 67.7419 25.8063 69.1863 25.8063 70.9678Z" fill="#CCD1D9"/>
<path d="M66.1291 70.9678C66.1291 72.7492 64.6847 74.1936 62.9033 74.1936C61.1219 74.1936 59.6775 72.7492 59.6775 70.9678C59.6775 69.1863 61.1219 67.7419 62.9033 67.7419C64.6847 67.7419 66.1291 69.1863 66.1291 70.9678Z" fill="#CCD1D9"/>
<path d="M85.4838 70.9678C85.4838 72.7492 84.0395 74.1936 82.258 74.1936C80.4766 74.1936 79.0322 72.7492 79.0322 70.9678C79.0322 69.1863 80.4766 67.7419 82.258 67.7419C84.0395 67.7419 85.4838 69.1863 85.4838 70.9678Z" fill="#CCD1D9"/>
<path d="M22.5807 66.129C19.9132 66.129 17.7419 68.3003 17.7419 70.9677C17.7419 73.6352 19.9132 75.8064 22.5807 75.8064C25.2481 75.8064 27.4194 73.6352 27.4194 70.9677C27.4194 68.3003 25.2481 66.129 22.5807 66.129ZM22.5807 72.5806C21.6923 72.5806 20.9677 71.8577 20.9677 70.9677C20.9677 70.0778 21.6923 69.3548 22.5807 69.3548C23.469 69.3548 24.1936 70.0778 24.1936 70.9677C24.1936 71.8577 23.469 72.5806 22.5807 72.5806Z" fill="black"/>
<path d="M62.9032 66.129C60.2357 66.129 58.0645 68.3003 58.0645 70.9677C58.0645 73.6352 60.2357 75.8064 62.9032 75.8064C65.5706 75.8064 67.7419 73.6352 67.7419 70.9677C67.7419 68.3003 65.5706 66.129 62.9032 66.129ZM62.9032 72.5806C62.0148 72.5806 61.2903 71.8577 61.2903 70.9677C61.2903 70.0778 62.0148 69.3548 62.9032 69.3548C63.7915 69.3548 64.5161 70.0778 64.5161 70.9677C64.5161 71.8577 63.7915 72.5806 62.9032 72.5806Z" fill="black"/>
<path d="M82.2581 66.129C79.5907 66.129 77.4194 68.3003 77.4194 70.9677C77.4194 73.6352 79.5907 75.8064 82.2581 75.8064C84.9256 75.8064 87.0969 73.6352 87.0969 70.9677C87.0969 68.3003 84.9256 66.129 82.2581 66.129ZM82.2581 72.5806C81.3698 72.5806 80.6452 71.8577 80.6452 70.9677C80.6452 70.0778 81.3698 69.3548 82.2581 69.3548C83.1465 69.3548 83.871 70.0778 83.871 70.9677C83.871 71.8577 83.1465 72.5806 82.2581 72.5806Z" fill="black"/>
<path d="M100 56.4516V17.7419H35.4839V56.4516H41.9355V59.6774H32.2581V35.4839C32.2581 32.8164 30.0868 30.6452 27.4194 30.6452H14.5161C6.51304 30.6452 0 37.1582 0 45.1613V64.5161C0 68.9626 3.61801 72.5807 8.06452 72.5807H11.4195C12.2062 78.0423 16.9048 82.2581 22.5806 82.2581C28.2565 82.2581 32.955 78.0423 33.7418 72.5807H51.7421C52.5288 78.0423 57.2274 82.2581 62.9032 82.2581C67.0127 82.2581 70.6047 80.0435 72.5806 76.7531C74.5566 80.0435 78.1486 82.2581 82.2581 82.2581C87.9339 82.2581 92.6325 78.0423 93.4192 72.5807H95.1613C97.8287 72.5807 100 70.4094 100 67.7419V64.5161C100 61.8487 97.8287 59.6774 95.1613 59.6774H93.5484V56.4516H100ZM38.7097 20.9677H96.7742V53.2258H38.7097V20.9677ZM30.4664 62.9032H55.0159C53.2841 64.598 52.1035 66.8449 51.7405 69.3548H33.7418C33.3803 66.8449 32.1998 64.598 30.4664 62.9032ZM27.4194 33.871C28.3077 33.871 29.0323 34.5955 29.0323 35.4839V59.6774H3.22581V53.2258H17.7419C22.1884 53.2258 25.8065 49.6078 25.8065 45.1613V37.0968H6.62881C8.6662 35.1051 11.4486 33.871 14.5161 33.871H27.4194ZM4.33074 40.3226H22.5806V45.1613C22.5806 47.8287 20.4094 50 17.7419 50H3.22581V45.1613C3.22581 43.4271 3.62903 41.7922 4.33074 40.3226ZM3.22581 64.5161V62.9032H14.6949C12.9631 64.598 11.7825 66.8449 11.4195 69.3548H8.06452C5.39708 69.3548 3.22581 67.1836 3.22581 64.5161ZM22.5806 79.0323C18.1341 79.0323 14.5161 75.4143 14.5161 70.9678C14.5161 66.5212 18.1341 62.9032 22.5806 62.9032C27.0272 62.9032 30.6452 66.5212 30.6452 70.9678C30.6452 75.4143 27.0272 79.0323 22.5806 79.0323ZM62.9032 79.0323C58.4567 79.0323 54.8387 75.4143 54.8387 70.9678C54.8387 66.5212 58.4567 62.9032 62.9032 62.9032C67.3497 62.9032 70.9677 66.5212 70.9677 70.9678C70.9677 75.4143 67.3497 79.0323 62.9032 79.0323ZM70.789 62.9032H74.3708C73.6793 63.5805 73.0807 64.3484 72.5791 65.1824C72.079 64.3484 71.4804 63.5805 70.789 62.9032ZM82.2581 79.0323C77.8116 79.0323 74.1936 75.4143 74.1936 70.9678C74.1936 66.5212 77.8116 62.9032 82.2581 62.9032C86.7046 62.9032 90.3226 66.5212 90.3226 70.9678C90.3226 75.4143 86.7046 79.0323 82.2581 79.0323ZM96.7742 64.5161V67.7419C96.7742 68.6319 96.0496 69.3548 95.1613 69.3548H93.4192C93.0577 66.8449 91.8772 64.598 90.1438 62.9032H95.1613C96.0496 62.9032 96.7742 63.6262 96.7742 64.5161ZM90.3226 59.6774H45.1613V56.4516H90.3226V59.6774Z" fill="black"/>
<path d="M41.9355 46.7742H45.1614V50H41.9355V46.7742Z" fill="black"/>
<path d="M41.9355 30.6451H45.1614V43.5484H41.9355V30.6451Z" fill="black"/>
<path d="M41.9355 24.1936H45.1614V27.4194H41.9355V24.1936Z" fill="black"/>
<path d="M51.6128 46.7742H54.8386V50H51.6128V46.7742Z" fill="black"/>
<path d="M51.6128 30.6451H54.8386V43.5484H51.6128V30.6451Z" fill="black"/>
<path d="M51.6128 24.1936H54.8386V27.4194H51.6128V24.1936Z" fill="black"/>
<path d="M61.2903 46.7742H64.5161V50H61.2903V46.7742Z" fill="black"/>
<path d="M61.2903 30.6451H64.5161V43.5484H61.2903V30.6451Z" fill="black"/>
<path d="M61.2903 24.1936H64.5161V27.4194H61.2903V24.1936Z" fill="black"/>
<path d="M70.9678 46.7742H74.1936V50H70.9678V46.7742Z" fill="black"/>
<path d="M70.9678 30.6451H74.1936V43.5484H70.9678V30.6451Z" fill="black"/>
<path d="M70.9678 24.1936H74.1936V27.4194H70.9678V24.1936Z" fill="black"/>
<path d="M80.6453 46.7742H83.8711V50H80.6453V46.7742Z" fill="black"/>
<path d="M80.6453 30.6451H83.8711V43.5484H80.6453V30.6451Z" fill="black"/>
<path d="M80.6453 24.1936H83.8711V27.4194H80.6453V24.1936Z" fill="black"/>
<path d="M90.3225 46.7742H93.5483V50H90.3225V46.7742Z" fill="black"/>
<path d="M90.3225 30.6451H93.5483V43.5484H90.3225V30.6451Z" fill="black"/>
<path d="M90.3225 24.1936H93.5483V27.4194H90.3225V24.1936Z" fill="black"/>
</svg>
