<svg width="219" height="204" viewBox="0 0 219 204" fill="none" xmlns="http://www.w3.org/2000/svg">
<path d="M218.2 143.926C218.2 160.126 213 175.126 204.3 187.426C200.6 192.026 196.5 196.326 192.2 200.326C191.9 200.626 191.5 200.926 191.2 201.226C189.5 202.526 187.5 203.326 185.2 203.326C181.2 203.326 177.7 200.826 176.2 197.426C175.9 196.726 175.7 195.926 175.5 195.126C175.4 194.626 175.4 194.126 175.4 193.626C175.4 192.826 175.5 192.026 175.7 191.326C176 190.526 176.3 189.826 176.6 189.026C181.2 176.826 183.6 163.626 183.6 149.826C183.6 119.326 171.5 91.7265 151.8 71.5265C151.1 70.8265 150.4 70.0265 149.6 69.3265C149.3 68.9265 148.8 68.6265 148.3 68.3265C138.8 59.3265 127.6 51.9265 115.4 46.6265C128.6 31.3265 145.8 19.6265 165.4 13.2265C165.8 13.1265 166.2 13.0265 166.6 12.9265C167.2 12.7265 167.9 12.5265 168.5 12.5265C171.5 12.5265 173.9 14.9265 173.9 17.9265C173.9 19.3265 173.4 20.6265 172.5 21.6265C171.8 22.3265 171 22.8265 170 23.1265C169.8 23.1265 169.5 23.2265 169.3 23.3265C159 25.8265 151.4 35.1265 151.4 46.2265C151.4 53.7265 154.9 60.3265 160.3 64.6265L162.3 66.0265L180.7 79.2265C181 79.4265 181.4 79.6265 181.7 79.8265C203.5 92.6265 218.2 116.526 218.2 143.926Z" fill="#00AEEF"/>
<path d="M100.6 1.52649C100.4 1.72649 100.2 1.92649 100.1 2.12649C99.8001 2.42649 99.6001 2.72649 99.3001 3.02649C91.1001 13.6265 85.0001 25.5265 81.1001 38.1265C80.2001 41.0265 79.4001 44.0265 78.7001 46.9265H78.6001C76.8001 54.9265 75.8001 63.3265 75.8001 71.9265C75.8001 79.7265 76.6001 87.2265 78.1001 94.6265H78.0001C54.1001 105.326 34.7001 124.226 23.3001 147.626C23.1001 148.026 22.9001 148.426 22.7001 148.826C21.0001 151.726 17.8001 153.726 14.2001 153.726C10.2001 153.726 6.70007 151.226 5.20007 147.726C5.00007 146.926 4.80007 146.226 4.50007 145.426C1.80007 135.726 0.400073 125.426 0.400073 114.826C0.300073 56.5265 44.1001 8.42649 100.6 1.52649Z" fill="#00AEEF"/>
<path d="M183.5 149.626C183.5 150.426 183.5 151.126 183.5 151.926C183.2 157.926 182.7 163.826 181.8 169.626C181.8 169.726 181.8 169.826 181.8 169.926C181 174.726 179.9 179.426 178.5 184.026C178.4 184.026 178.4 184.026 178.3 184.026C128.5 179.626 87.9999 142.826 78.1999 94.8264C76.6999 87.5264 75.8999 79.9264 75.8999 72.1264C75.8999 63.5264 76.8999 55.1264 78.6999 47.1264H78.7999C79.4999 44.1264 80.2999 41.2264 81.1999 38.3264C85.0999 25.8264 91.1999 13.8264 99.3999 3.22644C99.6999 2.92644 99.8999 2.62644 100.2 2.32644C100.4 2.12644 100.5 1.92644 100.7 1.72644C101 1.42644 101.3 1.22644 101.6 0.926442C103.5 -0.373558 106.1 -0.27356 107.8 1.02644C108.3 1.42644 108.7 1.82644 109.1 2.32644C109.9 3.52644 110.2 4.82644 110 6.12644C109.9 7.02644 109.5 8.02644 108.8 8.72644C108.6 8.92644 108.5 9.02644 108.3 9.22644C101.2 17.1264 100.1 29.1264 106.4 38.2264C108.7 41.5264 111.9 44.3264 115.4 46.3264C127.6 51.6264 138.8 58.9264 148.3 68.0264C148.8 68.3264 149.3 68.7264 149.6 69.0264C150.3 69.7264 151.1 70.5264 151.8 71.2264C171.4 91.4264 183.5 119.126 183.5 149.626Z" fill="#1C75BC"/>
</svg>
